<svg id="svg" version="1.1" xmlns="http://www.w3.org/2000/svg" width="400" height="400" viewBox="0, 0, 400,400"><g id="svgg"><path id="path0" d="M49.200 115.767 C 49.200 120.919,49.309 125.419,49.443 125.767 C 49.661 126.336,52.695 126.400,79.643 126.400 L 109.600 126.400 109.600 210.400 L 109.600 294.400 121.799 294.400 L 133.998 294.400 134.099 210.500 L 134.200 126.600 164.200 126.400 L 194.200 126.200 194.307 116.300 L 194.414 106.400 121.807 106.400 L 49.200 106.400 49.200 115.767 M223.200 200.408 L 223.200 294.416 260.900 294.253 C 295.433 294.104,301.395 293.941,305.800 293.023 C 306.460 292.886,307.990 292.580,309.200 292.344 C 310.410 292.108,311.850 291.775,312.400 291.604 C 312.950 291.433,314.210 291.061,315.200 290.777 C 316.190 290.493,317.171 290.112,317.380 289.930 C 317.589 289.749,318.018 289.600,318.334 289.600 C 323.623 289.600,339.361 277.264,343.627 269.774 C 346.427 264.859,348.442 260.168,349.202 256.800 C 350.813 249.653,350.949 248.415,350.958 240.800 C 350.968 233.133,350.837 231.970,349.249 225.600 C 346.130 213.088,333.613 200.195,321.100 196.603 C 319.835 196.240,318.800 195.788,318.800 195.599 C 318.800 195.166,320.970 193.600,321.570 193.600 C 321.986 193.600,322.905 193.065,327.000 190.438 C 342.553 180.460,349.454 161.996,344.805 142.800 C 344.020 139.558,343.500 137.758,343.161 137.105 C 342.962 136.723,342.800 136.163,342.800 135.861 C 342.800 135.187,340.199 130.124,338.456 127.402 C 336.363 124.137,331.902 119.508,328.749 117.331 C 320.518 111.649,312.566 108.919,298.123 106.818 C 296.288 106.552,282.197 106.400,259.223 106.400 L 223.200 106.400 223.200 200.408 M297.600 127.161 C 298.810 127.421,300.387 127.736,301.104 127.861 C 301.821 127.986,302.506 128.249,302.627 128.444 C 302.748 128.640,303.214 128.800,303.663 128.800 C 305.675 128.800,311.385 132.139,314.224 134.977 C 324.706 145.453,324.099 167.032,313.034 177.297 C 304.115 185.571,297.714 186.911,268.000 186.726 L 247.800 186.600 247.697 156.485 L 247.595 126.370 271.497 126.529 C 287.808 126.637,296.099 126.838,297.600 127.161 M294.420 206.412 C 308.318 207.477,318.679 213.024,322.599 221.500 C 325.541 227.862,326.272 230.973,326.663 238.795 C 327.039 246.332,324.387 256.870,321.350 259.907 C 321.047 260.210,320.800 260.629,320.800 260.838 C 320.800 261.454,314.288 267.746,312.989 268.386 C 312.335 268.708,311.350 269.262,310.800 269.618 C 309.354 270.554,303.544 272.805,302.580 272.802 C 302.129 272.801,301.589 272.962,301.380 273.159 C 300.541 273.951,296.390 274.110,272.500 274.260 L 247.600 274.418 247.600 240.442 C 247.600 213.636,247.706 206.424,248.100 206.265 C 249.062 205.877,289.091 206.004,294.420 206.412 " stroke="none" fill="#fbfbfb" fill-rule="evenodd"></path><path id="path1" d="M30.400 0.291 C 29.630 0.382,28.829 0.624,28.620 0.829 C 28.411 1.033,27.837 1.200,27.344 1.200 C 26.851 1.200,26.336 1.380,26.200 1.600 C 26.064 1.820,25.513 2.000,24.976 2.000 C 24.439 2.000,24.000 2.180,24.000 2.400 C 24.000 2.620,23.640 2.800,23.200 2.800 C 22.760 2.800,22.400 2.980,22.400 3.200 C 22.400 3.420,22.040 3.600,21.600 3.600 C 21.160 3.600,20.800 3.780,20.800 4.000 C 20.800 4.220,20.440 4.400,20.000 4.400 C 19.560 4.400,19.200 4.580,19.200 4.800 C 19.200 5.020,18.912 5.200,18.560 5.200 C 18.209 5.200,17.417 5.740,16.800 6.400 C 16.183 7.060,15.483 7.600,15.243 7.600 C 14.218 7.600,7.600 14.206,7.600 15.229 C 7.600 15.476,7.060 16.183,6.400 16.800 C 5.740 17.417,5.200 18.209,5.200 18.560 C 5.200 18.912,5.020 19.200,4.800 19.200 C 4.580 19.200,4.400 19.560,4.400 20.000 C 4.400 20.440,4.220 20.800,4.000 20.800 C 3.780 20.800,3.600 21.160,3.600 21.600 C 3.600 22.040,3.420 22.400,3.200 22.400 C 2.980 22.400,2.800 22.760,2.800 23.200 C 2.800 23.640,2.620 24.000,2.400 24.000 C 2.180 24.000,2.000 24.439,2.000 24.976 C 2.000 25.513,1.820 26.064,1.600 26.200 C 1.380 26.336,1.200 26.962,1.200 27.590 C 1.200 28.219,0.975 28.808,0.700 28.900 C -0.036 29.145,-0.036 370.524,0.700 371.260 C 0.975 371.535,1.200 372.163,1.200 372.656 C 1.200 373.149,1.380 373.664,1.600 373.800 C 1.820 373.936,2.000 374.487,2.000 375.024 C 2.000 375.561,2.180 376.000,2.400 376.000 C 2.620 376.000,2.800 376.360,2.800 376.800 C 2.800 377.240,2.980 377.600,3.200 377.600 C 3.420 377.600,3.600 377.960,3.600 378.400 C 3.600 378.840,3.780 379.200,4.000 379.200 C 4.220 379.200,4.400 379.560,4.400 380.000 C 4.400 380.440,4.580 380.800,4.800 380.800 C 5.020 380.800,5.200 381.088,5.200 381.440 C 5.200 381.791,5.740 382.583,6.400 383.200 C 7.060 383.817,7.600 384.517,7.600 384.757 C 7.600 385.782,14.206 392.400,15.229 392.400 C 15.476 392.400,16.183 392.940,16.800 393.600 C 17.417 394.260,18.209 394.800,18.560 394.800 C 18.912 394.800,19.200 394.980,19.200 395.200 C 19.200 395.420,19.560 395.600,20.000 395.600 C 20.440 395.600,20.800 395.780,20.800 396.000 C 20.800 396.220,21.160 396.400,21.600 396.400 C 22.040 396.400,22.400 396.580,22.400 396.800 C 22.400 397.020,22.760 397.200,23.200 397.200 C 23.640 397.200,24.000 397.380,24.000 397.600 C 24.000 397.820,24.439 398.000,24.976 398.000 C 25.513 398.000,26.064 398.180,26.200 398.400 C 26.336 398.620,26.962 398.800,27.590 398.800 C 28.219 398.800,28.808 399.025,28.900 399.300 C 29.145 400.036,370.524 400.036,371.260 399.300 C 371.535 399.025,372.163 398.800,372.656 398.800 C 373.149 398.800,373.664 398.620,373.800 398.400 C 373.936 398.180,374.487 398.000,375.024 398.000 C 375.561 398.000,376.000 397.820,376.000 397.600 C 376.000 397.380,376.360 397.200,376.800 397.200 C 377.240 397.200,377.600 397.020,377.600 396.800 C 377.600 396.580,377.960 396.400,378.400 396.400 C 378.840 396.400,379.200 396.220,379.200 396.000 C 379.200 395.780,379.560 395.600,380.000 395.600 C 380.440 395.600,380.800 395.420,380.800 395.200 C 380.800 394.980,381.088 394.800,381.440 394.800 C 381.791 394.800,382.583 394.260,383.200 393.600 C 383.817 392.940,384.524 392.400,384.771 392.400 C 385.794 392.400,392.400 385.782,392.400 384.757 C 392.400 384.517,392.940 383.817,393.600 383.200 C 394.260 382.583,394.800 381.791,394.800 381.440 C 394.800 381.088,394.980 380.800,395.200 380.800 C 395.420 380.800,395.600 380.440,395.600 380.000 C 395.600 379.560,395.780 379.200,396.000 379.200 C 396.220 379.200,396.400 378.840,396.400 378.400 C 396.400 377.960,396.580 377.600,396.800 377.600 C 397.020 377.600,397.200 377.240,397.200 376.800 C 397.200 376.360,397.380 376.000,397.600 376.000 C 397.820 376.000,398.000 375.561,398.000 375.024 C 398.000 374.487,398.180 373.936,398.400 373.800 C 398.620 373.664,398.800 373.149,398.800 372.656 C 398.800 372.163,399.025 371.535,399.300 371.260 C 399.698 370.862,399.800 336.057,399.800 199.913 C 399.800 63.592,399.699 29.033,399.300 28.900 C 399.025 28.808,398.800 28.219,398.800 27.590 C 398.800 26.962,398.620 26.336,398.400 26.200 C 398.180 26.064,398.000 25.513,398.000 24.976 C 398.000 24.439,397.820 24.000,397.600 24.000 C 397.380 24.000,397.200 23.640,397.200 23.200 C 397.200 22.760,397.020 22.400,396.800 22.400 C 396.580 22.400,396.400 22.040,396.400 21.600 C 396.400 21.160,396.220 20.800,396.000 20.800 C 395.780 20.800,395.600 20.440,395.600 20.000 C 395.600 19.560,395.420 19.200,395.200 19.200 C 394.980 19.200,394.800 18.912,394.800 18.560 C 394.800 18.209,394.260 17.417,393.600 16.800 C 392.940 16.183,392.400 15.476,392.400 15.229 C 392.400 14.206,385.782 7.600,384.757 7.600 C 384.517 7.600,383.817 7.060,383.200 6.400 C 382.583 5.740,381.791 5.200,381.440 5.200 C 381.088 5.200,380.800 5.020,380.800 4.800 C 380.800 4.580,380.440 4.400,380.000 4.400 C 379.560 4.400,379.200 4.220,379.200 4.000 C 379.200 3.780,378.840 3.600,378.400 3.600 C 377.960 3.600,377.600 3.420,377.600 3.200 C 377.600 2.980,377.240 2.800,376.800 2.800 C 376.360 2.800,376.000 2.620,376.000 2.400 C 376.000 2.180,375.561 2.000,375.024 2.000 C 374.487 2.000,373.936 1.820,373.800 1.600 C 373.664 1.380,373.149 1.200,372.656 1.200 C 372.163 1.200,371.535 0.975,371.260 0.700 C 370.782 0.222,34.383 -0.182,30.400 0.291 M194.978 105.835 C 195.531 106.388,195.600 107.779,195.507 116.535 L 195.400 126.600 165.100 126.703 L 134.800 126.805 134.794 210.503 C 134.791 256.536,134.643 294.428,134.467 294.706 C 134.217 295.100,131.405 295.188,121.773 295.106 L 109.400 295.000 109.299 210.903 L 109.198 126.805 78.899 126.703 L 48.600 126.600 48.493 116.449 C 48.418 109.296,48.521 106.137,48.842 105.749 C 49.587 104.852,194.079 104.937,194.978 105.835 M296.200 105.969 C 298.400 106.195,301.370 106.570,302.800 106.802 C 304.230 107.034,306.076 107.327,306.903 107.454 C 307.729 107.581,308.505 107.845,308.626 108.042 C 308.748 108.239,309.546 108.400,310.400 108.400 C 311.254 108.400,312.064 108.580,312.200 108.800 C 312.336 109.020,312.876 109.200,313.400 109.200 C 313.924 109.200,314.464 109.380,314.600 109.600 C 314.736 109.820,315.199 110.000,315.629 110.000 C 316.059 110.000,316.723 110.159,317.105 110.353 C 317.487 110.548,318.250 110.882,318.800 111.097 C 326.274 114.012,333.310 119.296,337.931 125.461 C 340.056 128.297,343.209 134.133,343.203 135.220 C 343.201 135.561,343.343 136.011,343.518 136.220 C 345.704 138.829,347.554 153.778,346.560 160.800 C 345.710 166.802,345.554 167.581,345.156 167.827 C 344.960 167.948,344.800 168.414,344.800 168.863 C 344.800 169.629,341.739 176.367,341.193 176.800 C 341.055 176.910,340.842 177.270,340.719 177.600 C 339.426 181.091,327.276 192.400,324.818 192.400 C 324.588 192.400,324.399 192.535,324.399 192.700 C 324.398 192.865,323.428 193.443,322.243 193.984 C 320.147 194.942,319.596 196.000,321.194 196.000 C 325.613 196.000,339.508 205.858,342.696 211.255 C 343.068 211.885,343.514 212.400,343.686 212.400 C 343.859 212.400,344.000 212.636,344.000 212.925 C 344.000 213.213,344.319 213.798,344.708 214.225 C 346.490 216.175,349.355 222.968,350.518 228.000 C 356.802 255.184,342.532 282.900,318.400 290.381 C 317.410 290.688,316.429 291.088,316.220 291.270 C 316.011 291.451,315.347 291.600,314.744 291.600 C 314.141 291.600,313.536 291.780,313.400 292.000 C 313.264 292.220,312.569 292.400,311.856 292.400 C 311.143 292.400,310.389 292.562,310.180 292.759 C 309.971 292.956,309.080 293.219,308.200 293.343 C 307.320 293.467,305.520 293.759,304.200 293.992 C 296.706 295.315,223.129 295.834,222.643 294.567 C 221.943 292.744,222.395 106.043,223.100 105.617 C 224.012 105.067,290.540 105.387,296.200 105.969 M248.497 156.287 L 248.600 185.800 270.600 185.783 C 286.821 185.771,293.230 185.633,295.000 185.258 C 309.312 182.224,317.080 175.273,320.374 162.554 C 321.379 158.672,320.807 149.806,319.191 144.200 C 317.615 138.734,312.685 133.323,306.998 130.815 C 305.899 130.331,304.687 129.769,304.305 129.567 C 303.923 129.365,303.169 129.200,302.629 129.200 C 302.089 129.200,301.548 129.039,301.426 128.842 C 301.305 128.645,300.439 128.371,299.503 128.232 C 298.566 128.094,296.630 127.784,295.200 127.544 C 293.639 127.283,283.764 127.041,270.497 126.941 L 248.395 126.774 248.497 156.287 M248.667 207.067 C 248.520 207.213,248.400 222.338,248.400 240.676 L 248.400 274.019 271.900 273.863 C 297.692 273.691,299.626 273.538,305.400 271.204 C 305.840 271.026,306.830 270.646,307.600 270.360 C 314.244 267.889,320.820 261.223,323.643 254.100 C 323.839 253.605,324.166 252.795,324.370 252.300 C 325.030 250.694,326.077 243.271,326.049 240.400 C 326.012 236.636,324.866 228.088,324.356 227.773 C 324.160 227.652,324.000 227.201,324.000 226.771 C 324.000 226.341,323.841 225.677,323.647 225.295 C 323.452 224.913,323.052 224.060,322.757 223.400 C 321.052 219.582,317.439 215.386,313.744 212.934 C 311.155 211.216,310.377 210.828,306.200 209.177 C 305.760 209.003,304.860 208.747,304.200 208.609 C 303.540 208.470,302.190 208.176,301.200 207.954 C 296.967 207.006,249.528 206.205,248.667 207.067 " stroke="none" fill="#6494ec" fill-rule="evenodd"></path><path id="path2" d="M49.067 106.267 C 48.702 106.632,48.739 125.285,49.106 125.863 C 49.268 126.118,49.346 121.843,49.280 116.363 L 49.161 106.400 121.794 106.400 L 194.427 106.400 194.313 116.400 C 194.251 121.900,194.335 126.400,194.500 126.400 C 194.665 126.400,194.800 121.810,194.800 116.200 L 194.800 106.000 122.067 106.000 C 82.063 106.000,49.213 106.120,49.067 106.267 M222.985 106.500 C 222.880 106.775,222.841 149.210,222.898 200.800 L 223.002 294.600 223.101 200.502 L 223.200 106.404 258.300 106.300 L 293.400 106.196 258.287 106.098 C 230.493 106.020,223.135 106.104,222.985 106.500 M297.800 106.823 C 298.680 107.005,299.850 107.143,300.400 107.130 C 301.988 107.091,299.365 106.495,297.600 106.493 L 296.200 106.492 297.800 106.823 M303.000 107.600 C 303.440 107.789,304.340 107.935,305.000 107.925 L 306.200 107.905 305.000 107.600 C 304.340 107.432,303.440 107.286,303.000 107.275 L 302.200 107.256 303.000 107.600 M310.800 109.182 C 311.130 109.405,311.745 109.591,312.167 109.594 C 313.190 109.602,312.871 109.373,311.400 109.044 C 310.524 108.848,310.362 108.885,310.800 109.182 M318.197 111.595 C 318.335 111.818,318.667 112.000,318.935 112.000 C 319.730 112.000,325.509 115.078,328.357 117.018 C 329.810 118.009,330.425 118.315,329.723 117.699 C 327.122 115.420,317.368 110.254,318.197 111.595 M334.213 122.100 C 335.949 124.025,337.438 125.600,337.522 125.600 C 337.815 125.600,334.454 121.786,332.763 120.200 C 331.825 119.320,332.477 120.175,334.213 122.100 M337.844 126.500 C 338.005 126.775,338.613 127.720,339.195 128.600 C 339.777 129.480,340.565 130.875,340.945 131.700 C 341.646 133.218,342.193 133.788,341.715 132.500 C 341.151 130.984,338.091 126.000,337.723 126.000 C 337.629 126.000,337.684 126.225,337.844 126.500 M134.267 126.667 C 134.120 126.813,134.000 164.611,134.000 210.661 L 134.000 294.388 121.900 294.503 L 109.800 294.617 122.000 294.609 L 134.200 294.600 134.400 210.500 C 134.510 164.245,134.585 126.400,134.567 126.400 C 134.548 126.400,134.413 126.520,134.267 126.667 M247.697 156.500 L 247.800 186.600 268.653 186.704 C 280.122 186.760,290.165 186.670,290.971 186.504 C 291.776 186.337,282.435 186.255,270.213 186.322 L 247.990 186.443 248.095 156.422 C 248.153 139.910,248.064 126.400,247.897 126.400 C 247.731 126.400,247.641 139.945,247.697 156.500 M289.233 126.544 C 289.325 126.624,290.930 126.781,292.800 126.894 C 294.672 127.008,295.661 126.964,295.000 126.797 C 293.786 126.491,288.926 126.278,289.233 126.544 M298.000 127.600 C 299.542 128.094,300.364 128.094,299.600 127.600 C 299.270 127.387,298.550 127.227,298.000 127.246 L 297.000 127.280 298.000 127.600 M301.400 128.400 C 302.501 128.873,302.892 128.873,302.600 128.400 C 302.464 128.180,301.958 128.013,301.476 128.028 C 300.631 128.055,300.629 128.069,301.400 128.400 M310.406 132.100 C 311.173 132.595,313.056 134.260,314.591 135.800 C 316.127 137.340,316.996 138.060,316.524 137.400 C 314.953 135.205,310.315 131.200,309.344 131.200 C 309.161 131.200,309.639 131.605,310.406 132.100 M317.878 140.195 C 318.244 140.962,318.614 141.519,318.701 141.432 C 318.884 141.249,317.670 138.800,317.396 138.800 C 317.295 138.800,317.512 139.428,317.878 140.195 M344.434 141.400 C 344.422 141.840,344.587 142.470,344.800 142.800 C 345.314 143.595,345.314 142.596,344.800 141.400 L 344.456 140.600 344.434 141.400 M319.612 144.400 C 319.612 144.730,319.787 145.270,320.000 145.600 C 320.345 146.133,320.388 146.133,320.388 145.600 C 320.388 145.270,320.213 144.730,320.000 144.400 C 319.655 143.867,319.612 143.867,319.612 144.400 M345.287 145.000 C 345.283 145.660,345.424 146.650,345.600 147.200 L 345.920 148.200 345.913 147.200 C 345.909 146.650,345.768 145.660,345.600 145.000 L 345.295 143.800 345.287 145.000 M320.487 147.000 C 320.491 147.440,320.632 148.340,320.800 149.000 C 321.074 150.078,321.106 150.098,321.113 149.200 C 321.117 148.650,320.976 147.750,320.800 147.200 C 320.549 146.416,320.481 146.373,320.487 147.000 M346.155 155.800 C 346.156 158.660,346.220 159.778,346.297 158.283 C 346.374 156.789,346.374 154.449,346.296 153.083 C 346.218 151.718,346.155 152.940,346.155 155.800 M321.350 155.800 C 321.351 158.220,321.416 159.158,321.496 157.885 C 321.576 156.612,321.575 154.632,321.494 153.485 C 321.414 152.338,321.349 153.380,321.350 155.800 M320.650 162.850 C 320.317 164.517,320.640 164.840,321.000 163.200 C 321.152 162.509,321.193 161.859,321.091 161.758 C 320.989 161.656,320.791 162.147,320.650 162.850 M345.449 163.415 C 345.312 163.773,345.216 164.456,345.236 164.933 C 345.262 165.547,345.385 165.408,345.659 164.456 C 346.057 163.072,345.894 162.258,345.449 163.415 M317.800 170.800 C 317.459 171.460,317.269 172.000,317.379 172.000 C 317.489 172.000,317.859 171.460,318.200 170.800 C 318.541 170.140,318.731 169.600,318.621 169.600 C 318.511 169.600,318.141 170.140,317.800 170.800 M342.672 172.619 C 341.732 174.589,341.864 174.924,342.847 173.062 C 343.293 172.216,343.587 171.454,343.501 171.367 C 343.414 171.281,343.041 171.844,342.672 172.619 M316.344 173.100 C 315.193 174.489,314.706 175.200,314.904 175.200 C 315.014 175.200,315.586 174.570,316.173 173.800 C 317.263 172.371,317.395 171.832,316.344 173.100 M340.368 176.900 C 339.645 178.055,338.084 180.260,336.899 181.800 C 335.230 183.970,335.115 184.195,336.387 182.800 C 337.291 181.810,338.801 179.830,339.743 178.400 C 341.882 175.154,342.091 174.800,341.865 174.800 C 341.765 174.800,341.092 175.745,340.368 176.900 M310.800 178.854 L 309.000 180.485 310.694 179.213 C 312.168 178.107,313.114 177.174,312.724 177.212 C 312.656 177.219,311.790 177.958,310.800 178.854 M304.800 182.447 C 302.439 183.657,302.340 183.970,304.621 183.017 C 306.091 182.403,308.052 181.158,307.389 181.260 C 307.175 181.292,306.010 181.827,304.800 182.447 M298.600 184.800 C 298.096 185.017,298.022 185.144,298.400 185.144 C 298.730 185.144,299.360 184.989,299.800 184.800 C 300.304 184.583,300.378 184.456,300.000 184.456 C 299.670 184.456,299.040 184.611,298.600 184.800 M295.000 185.600 C 293.911 185.877,293.893 185.907,294.800 185.925 C 295.350 185.935,296.160 185.789,296.600 185.600 C 297.586 185.176,296.666 185.176,295.000 185.600 M330.573 187.901 C 328.863 189.477,329.288 189.288,331.531 187.476 C 332.263 186.884,332.713 186.400,332.531 186.401 C 332.349 186.402,331.468 187.077,330.573 187.901 M323.700 192.446 C 322.337 193.319,321.895 193.906,323.100 193.243 C 324.018 192.739,325.456 191.627,325.200 191.619 C 325.090 191.616,324.415 191.988,323.700 192.446 M319.900 194.446 C 319.295 194.897,318.800 195.423,318.800 195.615 C 318.800 196.001,321.647 196.887,321.941 196.592 C 322.044 196.489,321.559 196.292,320.864 196.153 C 319.241 195.828,319.255 195.117,320.900 194.298 C 321.615 193.942,321.930 193.645,321.600 193.638 C 321.270 193.631,320.505 193.995,319.900 194.446 M328.000 199.379 C 328.000 199.489,328.540 199.859,329.200 200.200 C 329.860 200.541,330.400 200.731,330.400 200.621 C 330.400 200.511,329.860 200.141,329.200 199.800 C 328.540 199.459,328.000 199.269,328.000 199.379 M332.000 201.682 C 333.084 202.768,337.596 206.348,337.581 206.110 C 337.561 205.785,333.563 202.460,332.447 201.841 C 332.091 201.644,331.890 201.572,332.000 201.682 M258.872 206.300 C 264.741 206.362,274.461 206.362,280.472 206.300 C 286.482 206.238,281.680 206.187,269.800 206.186 C 257.920 206.186,253.002 206.237,258.872 206.300 M247.694 240.300 C 247.642 259.055,247.735 274.400,247.900 274.400 C 248.172 274.400,248.169 250.302,247.893 218.400 C 247.835 211.690,247.746 221.545,247.694 240.300 M294.705 206.683 C 295.202 206.779,295.922 206.775,296.305 206.675 C 296.687 206.575,296.280 206.496,295.400 206.501 C 294.520 206.505,294.207 206.587,294.705 206.683 M297.633 206.944 C 297.725 207.023,298.790 207.189,300.000 207.312 C 301.369 207.451,301.898 207.408,301.400 207.196 C 300.633 206.870,297.289 206.647,297.633 206.944 M303.200 208.000 C 304.568 208.438,305.619 208.438,304.600 208.000 C 304.160 207.811,303.440 207.662,303.000 207.668 C 302.357 207.677,302.396 207.743,303.200 208.000 M340.864 209.944 C 343.057 212.808,343.738 213.566,343.248 212.600 C 343.025 212.160,342.097 210.990,341.186 210.000 L 339.529 208.200 340.864 209.944 M311.633 210.963 C 312.180 211.496,315.983 213.895,315.791 213.586 C 315.497 213.110,312.155 210.800,311.761 210.800 C 311.599 210.800,311.542 210.873,311.633 210.963 M318.093 215.861 C 319.120 216.995,320.530 218.849,321.227 219.982 C 321.923 221.114,322.578 221.955,322.682 221.851 C 323.013 221.520,319.744 217.062,317.952 215.400 L 316.227 213.800 318.093 215.861 M349.256 225.600 C 349.256 225.930,349.411 226.560,349.600 227.000 C 349.817 227.504,349.944 227.578,349.944 227.200 C 349.944 226.870,349.789 226.240,349.600 225.800 C 349.383 225.296,349.256 225.222,349.256 225.600 M324.644 227.400 C 324.973 228.871,325.202 229.190,325.194 228.167 C 325.191 227.745,325.005 227.130,324.782 226.800 C 324.485 226.362,324.448 226.524,324.644 227.400 M350.068 229.200 C 350.088 230.239,350.718 231.946,350.732 231.000 C 350.738 230.560,350.589 229.840,350.400 229.400 C 350.189 228.910,350.061 228.832,350.068 229.200 M325.468 230.600 C 325.771 232.577,326.002 232.914,325.994 231.367 C 325.991 230.725,325.816 229.930,325.605 229.600 C 325.345 229.191,325.301 229.510,325.468 230.600 M351.000 240.785 C 351.000 245.039,351.125 247.818,351.277 246.960 C 351.617 245.044,351.600 235.838,351.253 234.226 C 351.114 233.580,351.000 236.532,351.000 240.785 M326.200 240.195 C 326.200 243.850,326.317 246.427,326.460 245.920 C 326.603 245.414,326.720 242.840,326.720 240.200 C 326.720 237.560,326.603 234.984,326.460 234.475 C 326.317 233.966,326.200 236.540,326.200 240.195 M325.660 248.467 C 325.627 249.054,325.496 249.864,325.370 250.267 C 325.152 250.960,325.165 250.961,325.595 250.290 C 325.846 249.899,325.977 249.089,325.886 248.490 L 325.720 247.400 325.660 248.467 M350.449 250.600 C 350.416 251.040,350.296 251.850,350.183 252.400 L 349.977 253.400 350.406 252.419 C 350.642 251.879,350.761 251.069,350.672 250.619 C 350.513 249.821,350.507 249.821,350.449 250.600 M349.400 255.600 C 349.248 256.291,349.214 256.947,349.324 257.057 C 349.434 257.167,349.648 256.691,349.800 256.000 C 349.952 255.309,349.986 254.653,349.876 254.543 C 349.766 254.433,349.552 254.909,349.400 255.600 M321.837 258.600 C 321.476 259.150,321.337 259.600,321.527 259.600 C 321.716 259.600,322.077 259.150,322.327 258.600 C 322.578 258.050,322.717 257.600,322.637 257.600 C 322.557 257.600,322.197 258.050,321.837 258.600 M317.068 264.646 C 316.225 265.429,315.607 266.140,315.694 266.227 C 315.781 266.314,316.552 265.669,317.407 264.793 C 319.334 262.819,319.129 262.730,317.068 264.646 M313.681 267.372 C 312.029 268.540,311.768 268.800,312.248 268.800 C 312.458 268.800,313.253 268.267,314.015 267.616 C 315.672 266.200,315.508 266.080,313.681 267.372 M344.214 268.635 C 343.841 269.204,343.605 269.738,343.689 269.822 C 343.773 269.907,344.158 269.441,344.544 268.788 C 345.406 267.328,345.148 267.209,344.214 268.635 M310.300 269.429 C 309.695 269.757,309.200 270.110,309.200 270.213 C 309.200 270.599,309.832 270.357,310.800 269.600 C 311.989 268.670,311.811 268.609,310.300 269.429 M340.955 273.481 C 340.107 274.516,339.622 275.234,339.877 275.076 C 340.421 274.740,342.955 271.600,342.682 271.600 C 342.580 271.600,341.803 272.447,340.955 273.481 M300.200 273.200 C 299.429 273.531,299.431 273.545,300.276 273.572 C 300.758 273.587,301.264 273.420,301.400 273.200 C 301.692 272.727,301.301 272.727,300.200 273.200 M295.000 274.000 L 293.000 274.274 294.800 274.309 C 295.790 274.328,296.960 274.189,297.400 274.000 C 298.313 273.608,297.862 273.608,295.000 274.000 M336.000 278.898 C 334.130 280.691,333.320 281.598,334.200 280.912 C 335.773 279.685,339.947 275.582,339.585 275.618 C 339.483 275.629,337.870 277.104,336.000 278.898 M329.612 283.859 C 326.435 286.049,326.076 286.414,328.310 285.183 C 329.845 284.338,332.900 282.001,332.400 282.054 C 332.290 282.066,331.035 282.878,329.612 283.859 M324.800 286.800 C 324.030 287.222,323.544 287.574,323.720 287.583 C 324.144 287.605,326.400 286.432,326.400 286.190 C 326.400 285.928,326.377 285.937,324.800 286.800 M320.200 289.014 C 319.195 289.498,319.163 289.553,320.000 289.351 C 320.550 289.219,321.171 288.950,321.380 288.755 C 321.898 288.271,321.614 288.333,320.200 289.014 M309.000 292.400 C 307.981 292.838,309.032 292.838,310.400 292.400 C 311.204 292.143,311.243 292.077,310.600 292.068 C 310.160 292.062,309.440 292.211,309.000 292.400 M304.800 293.221 C 304.370 293.514,304.654 293.554,305.800 293.362 C 307.784 293.030,308.104 292.798,306.567 292.806 C 305.925 292.809,305.130 292.996,304.800 293.221 M298.400 294.016 C 297.773 294.226,298.370 294.266,300.000 294.123 C 301.430 293.997,302.675 293.828,302.767 293.747 C 303.095 293.458,299.380 293.686,298.400 294.016 M241.100 294.700 C 250.835 294.760,266.765 294.760,276.500 294.700 C 286.235 294.640,278.270 294.591,258.800 294.591 C 239.330 294.591,231.365 294.640,241.100 294.700 " stroke="none" fill="#b4ccf4" fill-rule="evenodd"></path><path id="path3" d="M48.842 105.749 C 48.156 106.576,48.412 126.496,49.110 126.637 C 49.391 126.694,49.436 126.649,49.210 126.537 C 48.589 126.229,48.656 106.704,49.280 106.080 C 49.978 105.382,194.022 105.382,194.720 106.080 C 195.588 106.948,195.383 125.846,194.500 126.395 C 193.860 126.792,193.869 126.819,194.600 126.709 C 195.714 126.542,196.070 106.927,194.978 105.835 C 194.079 104.937,49.587 104.852,48.842 105.749 M223.100 105.632 C 222.395 106.043,221.943 292.744,222.643 294.567 C 222.862 295.138,226.217 295.191,257.143 295.103 L 291.400 295.007 257.200 294.803 L 223.000 294.600 222.899 200.308 L 222.798 106.016 223.745 105.778 C 224.266 105.647,240.062 105.599,258.846 105.670 C 277.631 105.742,291.650 105.689,290.000 105.552 C 284.685 105.113,223.866 105.186,223.100 105.632 M295.000 106.199 C 295.909 106.507,300.948 106.682,300.200 106.380 C 299.760 106.202,298.320 106.058,297.000 106.060 C 295.680 106.062,294.780 106.124,295.000 106.199 M302.433 106.947 C 302.525 107.028,303.320 107.214,304.200 107.362 C 305.346 107.554,305.630 107.514,305.200 107.221 C 304.660 106.853,302.032 106.593,302.433 106.947 M307.400 108.000 C 308.501 108.473,308.892 108.473,308.600 108.000 C 308.464 107.780,307.958 107.613,307.476 107.628 C 306.631 107.655,306.629 107.669,307.400 108.000 M311.000 108.800 C 312.101 109.273,312.492 109.273,312.200 108.800 C 312.064 108.580,311.558 108.413,311.076 108.428 C 310.231 108.455,310.229 108.469,311.000 108.800 M324.800 114.150 C 324.800 114.244,325.475 114.741,326.300 115.254 C 328.723 116.761,329.060 116.912,328.000 116.018 C 326.923 115.110,324.800 113.870,324.800 114.150 M331.400 118.898 C 332.720 120.144,333.927 121.172,334.083 121.182 C 334.396 121.202,331.064 118.107,329.800 117.204 C 329.360 116.889,330.080 117.652,331.400 118.898 M134.596 210.600 C 134.596 256.800,134.643 275.641,134.700 252.468 C 134.757 229.295,134.757 191.495,134.700 168.468 C 134.643 145.441,134.596 164.400,134.596 210.600 M248.195 156.400 L 248.200 186.200 267.800 186.208 L 287.400 186.215 268.000 186.008 L 248.600 185.800 248.395 156.200 L 248.190 126.600 248.195 156.400 M292.400 127.193 C 293.388 127.516,296.689 127.735,296.367 127.456 C 296.275 127.376,295.120 127.211,293.800 127.088 C 292.309 126.949,291.779 126.989,292.400 127.193 M298.000 127.994 C 298.330 128.211,299.035 128.391,299.567 128.394 C 300.851 128.402,300.525 128.175,298.800 127.858 C 297.815 127.677,297.578 127.718,298.000 127.994 M339.560 128.200 C 340.234 129.505,340.788 130.228,340.785 129.800 C 340.783 129.580,340.414 128.950,339.964 128.400 C 339.421 127.736,339.285 127.669,339.560 128.200 M301.400 128.800 C 301.536 129.020,302.042 129.187,302.524 129.172 C 303.369 129.145,303.371 129.131,302.600 128.800 C 301.499 128.327,301.108 128.327,301.400 128.800 M310.205 132.548 C 311.302 133.290,313.175 134.859,314.367 136.036 C 315.559 137.213,316.239 137.731,315.879 137.188 C 314.867 135.662,309.401 131.200,308.544 131.200 C 308.360 131.200,309.108 131.807,310.205 132.548 M316.760 139.000 C 317.434 140.305,317.988 141.028,317.985 140.600 C 317.983 140.380,317.614 139.750,317.164 139.200 C 316.621 138.536,316.485 138.469,316.760 139.000 M345.044 141.800 C 345.373 143.271,345.602 143.590,345.594 142.567 C 345.591 142.145,345.405 141.530,345.182 141.200 C 344.885 140.762,344.848 140.924,345.044 141.800 M319.048 143.800 C 319.191 144.460,319.466 145.270,319.659 145.600 C 319.884 145.984,319.918 145.768,319.752 145.000 C 319.609 144.340,319.334 143.530,319.141 143.200 C 318.916 142.816,318.882 143.032,319.048 143.800 M345.893 146.600 C 346.013 147.920,346.176 149.075,346.255 149.167 C 346.551 149.507,346.331 145.770,346.010 145.000 C 345.808 144.517,345.762 145.151,345.893 146.600 M320.087 147.200 C 320.083 147.750,320.224 148.650,320.400 149.200 C 320.831 150.544,320.831 149.092,320.400 147.400 C 320.126 146.322,320.094 146.302,320.087 147.200 M320.955 155.800 C 320.956 158.660,321.020 159.778,321.097 158.283 C 321.174 156.789,321.174 154.449,321.096 153.083 C 321.018 151.718,320.955 152.940,320.955 155.800 M346.544 155.800 C 346.549 160.025,346.609 160.566,346.863 158.684 C 347.035 157.410,347.032 155.070,346.856 153.484 C 346.567 150.871,346.538 151.089,346.544 155.800 M320.256 162.484 C 320.121 162.988,320.027 163.760,320.046 164.200 C 320.065 164.640,320.245 164.298,320.446 163.440 C 320.836 161.778,320.670 160.940,320.256 162.484 M346.060 162.867 C 346.027 163.454,345.896 164.264,345.770 164.667 C 345.552 165.360,345.565 165.361,345.995 164.690 C 346.246 164.299,346.377 163.489,346.286 162.890 L 346.120 161.800 346.060 162.867 M312.955 176.258 C 311.831 177.436,311.027 178.400,311.169 178.400 C 311.311 178.400,312.405 177.410,313.600 176.200 C 314.795 174.990,315.599 174.026,315.386 174.058 C 315.174 174.089,314.080 175.079,312.955 176.258 M334.589 184.900 L 331.800 187.800 334.700 185.011 C 336.295 183.477,337.600 182.172,337.600 182.111 C 337.600 181.817,337.180 182.206,334.589 184.900 M288.900 185.891 C 289.725 185.978,291.075 185.978,291.900 185.891 C 292.725 185.805,292.050 185.734,290.400 185.734 C 288.750 185.734,288.075 185.805,288.900 185.891 M329.985 188.832 L 328.600 190.063 329.888 189.213 C 331.030 188.459,331.893 187.600,331.508 187.600 C 331.432 187.600,330.747 188.154,329.985 188.832 M328.800 199.379 C 328.800 199.489,329.340 199.859,330.000 200.200 C 330.660 200.541,331.200 200.731,331.200 200.621 C 331.200 200.511,330.660 200.141,330.000 199.800 C 329.340 199.459,328.800 199.269,328.800 199.379 M332.944 201.909 C 333.260 202.421,335.600 204.153,335.600 203.875 C 335.600 203.776,334.939 203.191,334.132 202.575 C 333.324 201.959,332.789 201.659,332.944 201.909 M248.267 206.667 C 248.120 206.813,248.043 222.068,248.097 240.567 L 248.193 274.200 248.397 240.600 L 248.600 207.000 272.600 207.000 C 285.800 207.000,295.250 206.889,293.600 206.752 C 289.485 206.412,248.598 206.335,248.267 206.667 M299.400 207.600 C 299.840 207.789,300.560 207.944,301.000 207.944 L 301.800 207.944 301.000 207.600 C 300.560 207.411,299.840 207.256,299.400 207.256 L 298.600 207.256 299.400 207.600 M303.200 208.400 C 303.530 208.613,304.160 208.778,304.600 208.766 L 305.400 208.744 304.600 208.400 C 303.404 207.886,302.405 207.886,303.200 208.400 M340.000 208.525 C 340.000 208.594,340.573 209.179,341.274 209.825 L 342.549 211.000 341.574 209.722 C 340.747 208.637,340.000 208.069,340.000 208.525 M319.077 217.622 C 319.715 218.403,320.649 219.708,321.151 220.522 C 321.654 221.335,322.151 222.000,322.255 222.000 C 322.661 222.000,320.924 219.424,319.458 217.853 C 318.323 216.637,318.223 216.576,319.077 217.622 M347.078 218.995 C 347.444 219.762,347.814 220.319,347.901 220.232 C 348.084 220.049,346.870 217.600,346.596 217.600 C 346.495 217.600,346.712 218.228,347.078 218.995 M350.901 231.000 C 350.905 231.880,350.987 232.193,351.083 231.695 C 351.179 231.198,351.175 230.478,351.075 230.095 C 350.975 229.713,350.896 230.120,350.901 231.000 M325.647 235.633 C 325.673 236.825,325.842 238.340,326.022 239.000 C 326.222 239.736,326.263 238.962,326.126 237.000 C 325.867 233.294,325.578 232.467,325.647 235.633 M351.760 240.600 C 351.761 243.900,351.822 245.197,351.898 243.482 C 351.973 241.767,351.972 239.067,351.897 237.482 C 351.821 235.897,351.759 237.300,351.760 240.600 M325.894 242.200 C 325.737 243.080,325.629 244.520,325.653 245.400 C 325.691 246.778,325.747 246.667,326.055 244.600 C 326.466 241.846,326.326 239.772,325.894 242.200 M350.909 250.800 C 350.909 251.790,350.987 252.195,351.082 251.700 C 351.178 251.205,351.178 250.395,351.082 249.900 C 350.987 249.405,350.909 249.810,350.909 250.800 M317.178 263.852 C 316.420 264.651,314.745 266.091,313.456 267.052 C 312.167 268.013,311.242 268.800,311.402 268.800 C 311.963 268.800,316.216 265.423,317.546 263.920 C 319.260 261.985,318.997 261.936,317.178 263.852 M347.600 262.484 C 347.600 262.604,347.328 263.354,346.995 264.151 C 346.662 264.948,346.479 265.600,346.589 265.600 C 346.906 265.600,348.033 262.700,347.805 262.472 C 347.692 262.359,347.600 262.365,347.600 262.484 M344.824 268.518 C 344.523 269.003,344.015 269.805,343.693 270.300 C 343.371 270.795,343.195 271.200,343.301 271.200 C 343.583 271.200,345.686 267.953,345.515 267.781 C 345.435 267.702,345.124 268.033,344.824 268.518 M295.400 273.610 C 294.866 273.847,295.198 273.886,296.400 273.727 C 297.390 273.596,298.275 273.424,298.367 273.344 C 298.714 273.043,296.164 273.272,295.400 273.610 M336.385 278.915 C 334.507 280.722,331.762 282.986,330.285 283.947 C 328.808 284.908,327.600 285.781,327.600 285.886 C 327.600 286.642,334.309 281.520,337.389 278.413 C 341.191 274.579,340.572 274.888,336.385 278.915 M305.000 293.600 C 303.893 293.882,303.877 293.909,304.800 293.947 C 305.350 293.969,306.070 293.813,306.400 293.600 C 307.081 293.160,306.729 293.160,305.000 293.600 M298.800 294.400 L 297.000 294.680 298.800 294.700 C 299.790 294.711,301.050 294.576,301.600 294.400 L 302.600 294.080 301.600 294.100 C 301.050 294.111,299.790 294.246,298.800 294.400 M109.545 294.906 C 109.714 295.074,115.420 295.164,122.226 295.106 L 134.600 294.999 121.920 294.800 C 114.945 294.690,109.377 294.738,109.545 294.906 " stroke="none" fill="#93b3f4" fill-rule="evenodd"></path><path id="path4" d="M85.700 105.900 C 105.665 105.957,138.335 105.957,158.300 105.900 C 178.265 105.843,161.930 105.796,122.000 105.796 C 82.070 105.796,65.735 105.843,85.700 105.900 M239.530 105.900 C 248.401 105.960,262.801 105.960,271.530 105.900 C 280.258 105.840,273.000 105.791,255.400 105.791 C 237.800 105.791,230.658 105.840,239.530 105.900 M194.973 116.200 C 194.973 121.700,195.030 124.005,195.099 121.323 C 195.168 118.641,195.168 114.141,195.099 111.323 C 195.030 108.505,194.974 110.700,194.973 116.200 M79.299 126.699 L 109.198 126.805 109.300 210.503 L 109.403 294.200 109.401 210.400 L 109.400 126.600 79.400 126.596 L 49.400 126.592 79.299 126.699 M149.500 126.700 C 157.695 126.760,171.105 126.760,179.300 126.700 C 187.495 126.639,180.790 126.590,164.400 126.590 C 148.010 126.590,141.305 126.639,149.500 126.700 M258.500 126.700 C 264.165 126.762,273.435 126.762,279.100 126.700 C 284.765 126.637,280.130 126.586,268.800 126.586 C 257.470 126.586,252.835 126.637,258.500 126.700 M287.905 186.283 C 288.402 186.379,289.122 186.375,289.505 186.275 C 289.887 186.175,289.480 186.096,288.600 186.101 C 287.720 186.105,287.407 186.187,287.905 186.283 M291.905 206.683 C 292.402 206.779,293.122 206.775,293.505 206.675 C 293.887 206.575,293.480 206.496,292.600 206.501 C 291.720 206.505,291.407 206.587,291.905 206.683 M317.375 264.100 L 316.200 265.400 317.500 264.225 C 318.215 263.579,318.800 262.994,318.800 262.925 C 318.800 262.616,318.470 262.888,317.375 264.100 M259.500 274.300 C 265.715 274.362,275.885 274.362,282.100 274.300 C 288.315 274.238,283.230 274.187,270.800 274.187 C 258.370 274.187,253.285 274.238,259.500 274.300 M294.700 294.682 C 295.195 294.778,296.005 294.778,296.500 294.682 C 296.995 294.587,296.590 294.509,295.600 294.509 C 294.610 294.509,294.205 294.587,294.700 294.682 " stroke="none" fill="#a4c4f4" fill-rule="evenodd"></path></g></svg>