<svg id="svg" version="1.1" xmlns="http://www.w3.org/2000/svg" width="400" height="400" viewBox="0, 0, 400,400"><g id="svgg"><path id="path0" d="M49.293 116.100 L 49.400 125.800 79.400 126.000 L 109.400 126.200 109.501 210.300 L 109.602 294.400 121.801 294.400 L 134.000 294.400 134.000 210.680 C 134.000 146.098,134.110 126.850,134.480 126.480 C 134.845 126.115,142.098 126.000,164.680 126.000 L 194.400 126.000 194.400 116.200 L 194.400 106.400 121.793 106.400 L 49.186 106.400 49.293 116.100 M223.299 200.290 L 223.400 294.200 260.400 294.189 C 300.518 294.176,301.625 294.127,310.800 291.945 C 314.060 291.170,315.665 290.696,317.400 289.997 C 317.840 289.819,319.010 289.375,320.000 289.009 C 323.468 287.728,329.417 284.281,333.293 281.308 C 334.980 280.014,340.756 273.998,341.467 272.795 C 341.855 272.138,342.314 271.600,342.486 271.600 C 342.659 271.600,342.800 271.407,342.800 271.172 C 342.800 270.937,343.307 269.992,343.926 269.072 C 346.612 265.084,348.867 258.848,350.461 251.000 C 351.254 247.099,351.114 234.089,350.235 230.000 C 349.834 228.130,349.416 226.103,349.306 225.495 C 349.197 224.887,348.949 224.292,348.754 224.171 C 348.559 224.051,348.400 223.662,348.400 223.306 C 348.400 222.453,345.387 216.281,343.857 214.000 C 338.297 205.711,329.923 199.319,321.100 196.627 C 319.800 196.231,318.800 195.694,318.800 195.392 C 318.800 194.892,320.883 193.600,321.689 193.600 C 321.891 193.600,322.841 193.060,323.800 192.400 C 324.759 191.740,325.654 191.200,325.788 191.200 C 326.339 191.200,329.255 188.928,333.233 185.400 C 339.163 180.140,343.440 172.850,345.316 164.800 C 345.877 162.392,345.866 148.417,345.301 145.400 C 345.053 144.080,344.648 142.190,344.401 141.200 C 344.153 140.210,343.851 138.903,343.729 138.295 C 343.607 137.687,343.349 137.092,343.154 136.971 C 342.959 136.851,342.800 136.482,342.800 136.151 C 342.800 135.166,340.390 130.407,338.331 127.325 C 333.317 119.823,324.792 113.564,315.800 110.784 C 314.920 110.512,313.840 110.155,313.400 109.990 C 311.290 109.202,307.760 108.428,300.400 107.142 C 298.631 106.833,285.883 106.639,260.499 106.534 L 223.198 106.380 223.299 200.290 M295.800 126.804 C 305.321 128.680,310.001 130.756,314.224 134.977 C 321.097 141.845,323.924 157.250,320.029 166.600 C 319.846 167.040,319.360 168.202,318.950 169.182 C 316.285 175.552,309.107 181.604,300.938 184.370 C 294.741 186.468,292.966 186.594,269.400 186.597 L 247.800 186.600 247.697 156.800 C 247.640 140.410,247.688 126.751,247.805 126.446 C 248.083 125.719,291.955 126.046,295.800 126.804 M294.800 206.398 C 311.267 207.815,321.078 214.546,324.829 227.000 C 325.094 227.880,325.452 228.960,325.624 229.400 C 326.889 232.625,326.828 249.841,325.550 250.631 C 325.357 250.750,325.200 251.199,325.200 251.629 C 325.200 252.059,325.048 252.723,324.863 253.105 C 323.220 256.493,322.798 257.458,322.799 257.825 C 322.800 258.058,322.464 258.609,322.054 259.050 C 321.644 259.490,321.093 260.253,320.829 260.745 C 318.384 265.314,310.174 270.840,302.800 272.879 C 298.659 274.025,296.342 274.131,272.500 274.271 L 247.600 274.418 247.600 240.475 C 247.600 221.807,247.720 206.413,247.867 206.267 C 248.290 205.844,289.703 205.960,294.800 206.398 " stroke="none" fill="#6c6c6c" fill-rule="evenodd"></path><path id="path1" d="M30.400 0.291 C 29.630 0.382,28.829 0.624,28.620 0.829 C 28.411 1.033,27.837 1.200,27.344 1.200 C 26.851 1.200,26.336 1.380,26.200 1.600 C 26.064 1.820,25.513 2.000,24.976 2.000 C 24.439 2.000,24.000 2.180,24.000 2.400 C 24.000 2.620,23.640 2.800,23.200 2.800 C 22.760 2.800,22.400 2.980,22.400 3.200 C 22.400 3.420,22.040 3.600,21.600 3.600 C 21.160 3.600,20.800 3.780,20.800 4.000 C 20.800 4.220,20.440 4.400,20.000 4.400 C 19.560 4.400,19.200 4.580,19.200 4.800 C 19.200 5.020,18.912 5.200,18.560 5.200 C 18.209 5.200,17.417 5.740,16.800 6.400 C 16.183 7.060,15.483 7.600,15.243 7.600 C 14.218 7.600,7.600 14.206,7.600 15.229 C 7.600 15.476,7.060 16.183,6.400 16.800 C 5.740 17.417,5.200 18.209,5.200 18.560 C 5.200 18.912,5.020 19.200,4.800 19.200 C 4.580 19.200,4.400 19.560,4.400 20.000 C 4.400 20.440,4.220 20.800,4.000 20.800 C 3.780 20.800,3.600 21.160,3.600 21.600 C 3.600 22.040,3.420 22.400,3.200 22.400 C 2.980 22.400,2.800 22.760,2.800 23.200 C 2.800 23.640,2.620 24.000,2.400 24.000 C 2.180 24.000,2.000 24.439,2.000 24.976 C 2.000 25.513,1.820 26.064,1.600 26.200 C 1.380 26.336,1.200 26.851,1.200 27.344 C 1.200 27.837,0.975 28.465,0.700 28.740 C -0.036 29.476,-0.036 370.524,0.700 371.260 C 0.975 371.535,1.200 372.163,1.200 372.656 C 1.200 373.149,1.380 373.664,1.600 373.800 C 1.820 373.936,2.000 374.487,2.000 375.024 C 2.000 375.561,2.180 376.000,2.400 376.000 C 2.620 376.000,2.800 376.360,2.800 376.800 C 2.800 377.240,2.980 377.600,3.200 377.600 C 3.420 377.600,3.600 377.960,3.600 378.400 C 3.600 378.840,3.780 379.200,4.000 379.200 C 4.220 379.200,4.400 379.560,4.400 380.000 C 4.400 380.440,4.580 380.800,4.800 380.800 C 5.020 380.800,5.200 381.088,5.200 381.440 C 5.200 381.791,5.740 382.583,6.400 383.200 C 7.060 383.817,7.600 384.517,7.600 384.757 C 7.600 385.782,14.206 392.400,15.229 392.400 C 15.476 392.400,16.183 392.940,16.800 393.600 C 17.417 394.260,18.209 394.800,18.560 394.800 C 18.912 394.800,19.200 394.980,19.200 395.200 C 19.200 395.420,19.560 395.600,20.000 395.600 C 20.440 395.600,20.800 395.780,20.800 396.000 C 20.800 396.220,21.160 396.400,21.600 396.400 C 22.040 396.400,22.400 396.580,22.400 396.800 C 22.400 397.020,22.760 397.200,23.200 397.200 C 23.640 397.200,24.000 397.380,24.000 397.600 C 24.000 397.820,24.439 398.000,24.976 398.000 C 25.513 398.000,26.064 398.180,26.200 398.400 C 26.336 398.620,26.851 398.800,27.344 398.800 C 27.837 398.800,28.465 399.025,28.740 399.300 C 29.476 400.036,370.524 400.036,371.260 399.300 C 371.535 399.025,372.163 398.800,372.656 398.800 C 373.149 398.800,373.664 398.620,373.800 398.400 C 373.936 398.180,374.487 398.000,375.024 398.000 C 375.561 398.000,376.000 397.820,376.000 397.600 C 376.000 397.380,376.360 397.200,376.800 397.200 C 377.240 397.200,377.600 397.020,377.600 396.800 C 377.600 396.580,377.960 396.400,378.400 396.400 C 378.840 396.400,379.200 396.220,379.200 396.000 C 379.200 395.780,379.560 395.600,380.000 395.600 C 380.440 395.600,380.800 395.420,380.800 395.200 C 380.800 394.980,381.088 394.800,381.440 394.800 C 381.791 394.800,382.583 394.260,383.200 393.600 C 383.817 392.940,384.524 392.400,384.771 392.400 C 385.794 392.400,392.400 385.782,392.400 384.757 C 392.400 384.517,392.940 383.817,393.600 383.200 C 394.260 382.583,394.800 381.791,394.800 381.440 C 394.800 381.088,394.980 380.800,395.200 380.800 C 395.420 380.800,395.600 380.440,395.600 380.000 C 395.600 379.560,395.780 379.200,396.000 379.200 C 396.220 379.200,396.400 378.840,396.400 378.400 C 396.400 377.960,396.580 377.600,396.800 377.600 C 397.020 377.600,397.200 377.240,397.200 376.800 C 397.200 376.360,397.380 376.000,397.600 376.000 C 397.820 376.000,398.000 375.561,398.000 375.024 C 398.000 374.487,398.180 373.936,398.400 373.800 C 398.620 373.664,398.800 373.149,398.800 372.656 C 398.800 372.163,399.025 371.535,399.300 371.260 C 400.036 370.524,400.036 29.476,399.300 28.740 C 399.025 28.465,398.800 27.837,398.800 27.344 C 398.800 26.851,398.620 26.336,398.400 26.200 C 398.180 26.064,398.000 25.513,398.000 24.976 C 398.000 24.439,397.820 24.000,397.600 24.000 C 397.380 24.000,397.200 23.640,397.200 23.200 C 397.200 22.760,397.020 22.400,396.800 22.400 C 396.580 22.400,396.400 22.040,396.400 21.600 C 396.400 21.160,396.220 20.800,396.000 20.800 C 395.780 20.800,395.600 20.440,395.600 20.000 C 395.600 19.560,395.420 19.200,395.200 19.200 C 394.980 19.200,394.800 18.912,394.800 18.560 C 394.800 18.209,394.260 17.417,393.600 16.800 C 392.940 16.183,392.400 15.476,392.400 15.229 C 392.400 14.206,385.782 7.600,384.757 7.600 C 384.517 7.600,383.817 7.060,383.200 6.400 C 382.583 5.740,381.791 5.200,381.440 5.200 C 381.088 5.200,380.800 5.020,380.800 4.800 C 380.800 4.580,380.440 4.400,380.000 4.400 C 379.560 4.400,379.200 4.220,379.200 4.000 C 379.200 3.780,378.840 3.600,378.400 3.600 C 377.960 3.600,377.600 3.420,377.600 3.200 C 377.600 2.980,377.240 2.800,376.800 2.800 C 376.360 2.800,376.000 2.620,376.000 2.400 C 376.000 2.180,375.561 2.000,375.024 2.000 C 374.487 2.000,373.936 1.820,373.800 1.600 C 373.664 1.380,373.149 1.200,372.656 1.200 C 372.163 1.200,371.535 0.975,371.260 0.700 C 370.782 0.222,34.383 -0.182,30.400 0.291 M195.357 106.233 C 195.784 107.345,195.629 125.198,195.186 126.026 C 194.782 126.781,194.023 126.800,164.786 126.800 L 134.800 126.800 134.800 210.551 C 134.800 280.987,134.713 294.374,134.252 294.757 C 133.862 295.080,130.185 295.181,121.552 295.106 L 109.400 295.000 109.299 210.900 L 109.198 126.800 79.432 126.800 C 63.060 126.800,49.381 126.691,49.033 126.557 C 48.384 126.308,48.029 107.832,48.643 106.233 C 49.015 105.262,194.985 105.262,195.357 106.233 M295.400 106.024 C 299.898 106.410,303.054 106.860,306.600 107.622 C 307.700 107.858,309.276 108.149,310.103 108.268 C 310.929 108.387,311.705 108.645,311.826 108.842 C 311.948 109.039,312.399 109.200,312.829 109.200 C 313.259 109.200,313.923 109.358,314.305 109.551 C 314.687 109.744,315.720 110.116,316.600 110.378 C 324.713 112.794,334.313 119.921,338.993 127.000 C 339.741 128.132,340.064 128.687,341.085 130.600 C 341.793 131.925,343.087 134.911,343.599 136.400 C 343.864 137.170,344.229 138.160,344.410 138.600 C 344.591 139.040,344.850 139.940,344.984 140.600 C 345.119 141.260,345.506 143.060,345.844 144.600 C 346.664 148.331,346.817 161.374,346.075 164.200 C 345.786 165.300,345.360 166.920,345.129 167.800 C 343.290 174.802,337.047 183.829,331.000 188.231 C 330.120 188.871,329.310 189.498,329.200 189.624 C 328.717 190.177,325.215 192.400,324.828 192.400 C 324.593 192.400,324.399 192.535,324.399 192.700 C 324.398 192.865,323.408 193.450,322.200 194.000 C 319.592 195.187,319.595 195.517,322.219 196.329 C 349.564 204.787,360.610 241.882,344.156 270.000 C 339.712 277.594,324.147 290.000,319.063 290.000 C 318.724 290.000,318.349 290.159,318.230 290.352 C 318.110 290.546,317.604 290.803,317.106 290.924 C 316.608 291.045,315.480 291.349,314.600 291.599 C 311.154 292.577,308.575 293.145,303.600 294.017 C 297.293 295.124,225.094 295.814,223.174 294.786 C 222.404 294.374,221.879 108.222,222.643 106.233 C 222.926 105.494,287.081 105.310,295.400 106.024 M248.097 156.284 L 248.200 185.800 268.400 185.917 C 298.361 186.091,304.066 184.909,312.806 176.718 C 324.706 165.565,323.487 141.240,310.600 132.696 C 308.497 131.302,303.826 129.200,302.832 129.200 C 302.401 129.200,301.948 129.039,301.826 128.842 C 301.705 128.645,300.929 128.381,300.103 128.254 C 299.276 128.127,297.430 127.817,296.000 127.565 C 294.338 127.272,285.212 127.046,270.697 126.938 L 247.995 126.769 248.097 156.284 M248.243 207.433 C 248.109 207.781,248.000 222.905,248.000 241.042 L 248.000 274.018 271.900 273.870 C 299.568 273.698,300.336 273.621,308.200 270.219 C 312.517 268.351,317.753 264.179,320.022 260.800 C 320.539 260.030,321.061 259.310,321.183 259.200 C 321.686 258.746,324.000 253.837,324.000 253.224 C 324.000 252.859,324.151 252.389,324.336 252.180 C 325.359 251.021,326.519 240.982,325.997 237.795 C 325.781 236.478,325.604 234.644,325.602 233.720 C 325.596 229.085,322.785 222.193,318.915 217.322 C 316.195 213.898,309.032 209.538,304.600 208.609 C 303.940 208.470,302.590 208.177,301.600 207.958 C 295.828 206.678,248.710 206.215,248.243 207.433 " stroke="none" fill="#fbfbfb" fill-rule="evenodd"></path><path id="path2" d="M194.799 115.919 L 194.999 125.800 195.107 116.227 C 195.166 110.962,195.076 106.516,194.907 106.347 C 194.738 106.177,194.690 110.485,194.799 115.919 M48.973 116.200 C 48.973 121.700,49.030 124.005,49.099 121.323 C 49.168 118.641,49.168 114.141,49.099 111.323 C 49.030 108.505,48.974 110.700,48.973 116.200 M288.505 126.687 C 289.114 126.779,290.014 126.777,290.505 126.682 C 290.997 126.587,290.500 126.511,289.400 126.514 C 288.300 126.517,287.897 126.595,288.505 126.687 M293.300 206.676 C 293.685 206.776,294.315 206.776,294.700 206.676 C 295.085 206.575,294.770 206.493,294.000 206.493 C 293.230 206.493,292.915 206.575,293.300 206.676 M351.293 245.600 C 351.293 246.370,351.375 246.685,351.476 246.300 C 351.576 245.915,351.576 245.285,351.476 244.900 C 351.375 244.515,351.293 244.830,351.293 245.600 M292.705 274.283 C 293.202 274.379,293.922 274.375,294.305 274.275 C 294.687 274.175,294.280 274.096,293.400 274.101 C 292.520 274.105,292.207 274.187,292.705 274.283 M292.307 294.690 C 293.026 294.779,294.106 294.777,294.707 294.686 C 295.308 294.595,294.720 294.522,293.400 294.524 C 292.080 294.526,291.588 294.601,292.307 294.690 " stroke="none" fill="#b4b4b4" fill-rule="evenodd"></path><path id="path3" d="M48.643 106.233 C 48.029 107.832,48.384 126.308,49.033 126.557 C 49.381 126.691,63.060 126.800,79.432 126.800 L 109.198 126.800 109.299 210.900 L 109.400 295.000 121.552 295.106 C 130.185 295.181,133.862 295.080,134.252 294.757 C 134.713 294.374,134.800 280.987,134.800 210.551 L 134.800 126.800 164.786 126.800 C 194.023 126.800,194.782 126.781,195.186 126.026 C 195.629 125.198,195.784 107.345,195.357 106.233 C 194.985 105.262,49.015 105.262,48.643 106.233 M222.643 106.233 C 222.288 107.157,222.345 294.319,222.700 294.538 C 222.865 294.640,223.000 252.306,223.000 200.462 L 223.000 106.200 257.800 105.997 L 292.600 105.793 257.743 105.697 C 226.270 105.609,222.862 105.661,222.643 106.233 M195.113 115.400 C 195.175 120.460,195.127 125.004,195.006 125.497 L 194.786 126.395 164.693 126.497 L 134.600 126.600 134.400 210.600 L 134.200 294.600 121.901 294.706 L 109.602 294.812 109.501 210.706 L 109.400 126.600 79.200 126.400 L 49.000 126.200 48.893 116.608 C 48.833 111.332,48.873 106.787,48.980 106.507 C 49.138 106.097,63.367 106.018,122.088 106.099 L 195.000 106.200 195.113 115.400 M294.691 106.289 C 295.401 106.377,296.661 106.379,297.491 106.292 C 298.321 106.205,297.740 106.133,296.200 106.131 C 294.660 106.129,293.981 106.200,294.691 106.289 M301.633 106.944 C 301.725 107.024,302.610 107.196,303.600 107.327 C 304.802 107.486,305.134 107.447,304.600 107.210 C 303.836 106.872,301.286 106.643,301.633 106.944 M306.033 107.743 C 306.125 107.821,306.830 108.001,307.600 108.142 C 308.585 108.323,308.822 108.282,308.400 108.006 C 307.858 107.650,305.637 107.403,306.033 107.743 M323.200 113.379 C 323.200 113.489,323.740 113.859,324.400 114.200 C 325.060 114.541,325.600 114.731,325.600 114.621 C 325.600 114.511,325.060 114.141,324.400 113.800 C 323.740 113.459,323.200 113.269,323.200 113.379 M331.282 118.767 C 332.318 119.683,334.118 121.463,335.282 122.722 C 336.447 123.982,337.137 124.650,336.815 124.206 C 335.731 122.711,331.809 118.745,330.600 117.920 C 329.940 117.470,330.247 117.851,331.282 118.767 M338.674 127.167 C 339.293 128.028,339.852 128.681,339.916 128.618 C 340.113 128.420,338.218 125.635,337.874 125.617 C 337.695 125.608,338.055 126.305,338.674 127.167 M258.100 126.700 C 263.545 126.763,272.455 126.763,277.900 126.700 C 283.345 126.637,278.890 126.585,268.000 126.585 C 257.110 126.585,252.655 126.637,258.100 126.700 M294.705 127.483 C 295.202 127.579,295.922 127.575,296.305 127.475 C 296.687 127.375,296.280 127.296,295.400 127.301 C 294.520 127.305,294.207 127.387,294.705 127.483 M298.400 127.994 C 298.730 128.211,299.435 128.391,299.967 128.394 C 301.251 128.402,300.925 128.175,299.200 127.858 C 298.215 127.677,297.978 127.718,298.400 127.994 M304.000 129.334 C 304.000 129.437,304.581 129.724,305.291 129.972 C 306.001 130.219,306.406 130.257,306.191 130.056 C 305.735 129.629,304.000 129.058,304.000 129.334 M306.833 130.549 C 307.245 130.917,309.600 132.000,309.600 131.821 C 309.600 131.590,307.382 130.400,306.953 130.400 C 306.796 130.400,306.742 130.467,306.833 130.549 M312.434 133.900 C 312.452 134.065,313.217 134.822,314.134 135.582 L 315.800 136.963 314.219 135.282 C 312.593 133.552,312.376 133.384,312.434 133.900 M316.054 137.807 C 316.413 138.243,317.170 139.500,317.735 140.600 C 318.300 141.700,318.771 142.459,318.781 142.287 C 318.819 141.649,316.838 138.131,316.131 137.582 C 315.439 137.044,315.435 137.056,316.054 137.807 M345.044 142.200 C 345.373 143.671,345.602 143.990,345.594 142.967 C 345.591 142.545,345.405 141.930,345.182 141.600 C 344.885 141.162,344.848 141.324,345.044 142.200 M319.844 146.200 C 320.173 147.671,320.402 147.990,320.394 146.967 C 320.391 146.545,320.205 145.930,319.982 145.600 C 319.685 145.162,319.648 145.324,319.844 146.200 M346.114 148.200 C 346.117 149.300,346.195 149.703,346.287 149.095 C 346.379 148.486,346.377 147.586,346.282 147.095 C 346.187 146.603,346.111 147.100,346.114 148.200 M320.960 155.800 C 320.961 159.100,321.022 160.397,321.098 158.682 C 321.173 156.967,321.172 154.267,321.097 152.682 C 321.021 151.097,320.959 152.500,320.960 155.800 M346.548 156.000 C 346.548 158.310,346.614 159.255,346.695 158.100 C 346.776 156.945,346.776 155.055,346.695 153.900 C 346.614 152.745,346.548 153.690,346.548 156.000 M320.046 164.067 C 320.021 164.434,319.896 165.064,319.770 165.467 C 319.552 166.162,319.563 166.163,319.997 165.487 C 320.248 165.096,320.373 164.466,320.273 164.087 C 320.111 163.468,320.088 163.466,320.046 164.067 M311.775 177.700 L 310.600 179.000 311.900 177.825 C 312.615 177.179,313.200 176.594,313.200 176.525 C 313.200 176.216,312.870 176.488,311.775 177.700 M339.961 178.100 C 339.704 178.595,338.856 179.810,338.075 180.800 C 336.762 182.465,336.746 182.517,337.859 181.491 C 338.995 180.445,341.097 177.200,340.640 177.200 C 340.523 177.200,340.218 177.605,339.961 178.100 M308.000 180.400 C 307.450 180.830,307.197 181.186,307.438 181.191 C 307.679 181.196,308.202 180.840,308.600 180.400 C 309.512 179.392,309.288 179.392,308.000 180.400 M334.981 184.500 L 333.400 186.200 335.100 184.619 C 336.681 183.148,336.984 182.800,336.681 182.800 C 336.616 182.800,335.851 183.565,334.981 184.500 M248.000 186.100 C 248.000 186.265,257.225 186.359,268.500 186.310 C 279.775 186.260,285.760 186.170,281.800 186.111 C 263.329 185.832,248.000 185.827,248.000 186.100 M291.500 185.882 C 291.995 185.978,292.805 185.978,293.300 185.882 C 293.795 185.787,293.390 185.709,292.400 185.709 C 291.410 185.709,291.005 185.787,291.500 185.882 M327.400 190.635 L 326.200 191.666 327.600 190.763 C 329.396 189.604,329.401 189.600,328.967 189.602 C 328.765 189.603,328.060 190.068,327.400 190.635 M330.564 200.494 C 330.984 200.772,332.478 201.855,333.885 202.900 C 335.291 203.945,336.554 204.800,336.691 204.800 C 337.143 204.800,332.224 201.129,331.000 200.553 C 330.303 200.225,330.120 200.201,330.564 200.494 M248.006 207.100 C 248.011 207.640,248.090 207.677,248.353 207.263 C 248.633 206.821,252.992 206.750,273.046 206.863 C 286.441 206.938,296.230 206.886,294.800 206.747 C 287.886 206.073,248.000 206.374,248.006 207.100 M299.800 207.600 C 300.240 207.789,300.960 207.944,301.400 207.944 L 302.200 207.944 301.400 207.600 C 300.960 207.411,300.240 207.256,299.800 207.256 L 299.000 207.256 299.800 207.600 M339.600 207.864 C 339.600 208.082,340.095 208.697,340.700 209.230 L 341.800 210.200 340.800 209.000 C 340.250 208.340,339.755 207.725,339.700 207.633 C 339.645 207.542,339.600 207.645,339.600 207.864 M303.600 208.382 C 303.930 208.605,304.545 208.791,304.967 208.794 C 305.990 208.802,305.671 208.573,304.200 208.244 C 303.324 208.048,303.162 208.085,303.600 208.382 M313.344 212.309 C 313.660 212.821,316.000 214.553,316.000 214.275 C 316.000 214.176,315.339 213.591,314.532 212.975 C 313.724 212.359,313.189 212.059,313.344 212.309 M316.400 214.525 C 316.400 214.594,316.985 215.179,317.700 215.825 L 319.000 217.000 317.825 215.700 C 316.730 214.488,316.400 214.216,316.400 214.525 M319.206 217.272 C 319.203 217.421,319.920 218.627,320.800 219.952 C 321.680 221.277,322.400 222.539,322.400 222.757 C 322.400 222.975,322.578 223.263,322.795 223.397 C 323.424 223.785,322.786 222.411,321.224 220.011 C 319.369 217.160,319.213 216.949,319.206 217.272 M348.229 221.600 C 348.376 222.150,348.664 222.870,348.867 223.200 C 349.125 223.617,349.157 223.495,348.971 222.800 C 348.824 222.250,348.536 221.530,348.333 221.200 C 348.075 220.783,348.043 220.905,348.229 221.600 M350.056 227.600 C 350.056 227.930,350.211 228.560,350.400 229.000 C 350.617 229.504,350.744 229.578,350.744 229.200 C 350.744 228.870,350.589 228.240,350.400 227.800 C 350.183 227.296,350.056 227.222,350.056 227.600 M324.856 229.200 C 324.856 229.530,325.011 230.160,325.200 230.600 C 325.417 231.104,325.544 231.178,325.544 230.800 C 325.544 230.470,325.389 229.840,325.200 229.400 C 324.983 228.896,324.856 228.822,324.856 229.200 M325.683 234.200 C 325.670 235.080,325.803 236.610,325.980 237.600 C 326.430 240.131,326.465 237.464,326.018 234.600 C 325.715 232.652,325.706 232.641,325.683 234.200 M351.693 240.400 C 351.693 241.170,351.775 241.485,351.876 241.100 C 351.976 240.715,351.976 240.085,351.876 239.700 C 351.775 239.315,351.693 239.630,351.693 240.400 M325.800 244.400 C 325.643 245.966,325.604 247.337,325.714 247.447 C 325.824 247.557,326.043 246.366,326.200 244.800 C 326.357 243.234,326.396 241.863,326.286 241.753 C 326.176 241.643,325.957 242.834,325.800 244.400 M325.029 249.829 C 324.881 250.415,324.838 250.972,324.932 251.066 C 325.027 251.160,325.224 250.758,325.371 250.171 C 325.519 249.585,325.562 249.028,325.468 248.934 C 325.373 248.840,325.176 249.242,325.029 249.829 M350.893 250.000 C 350.893 250.770,350.975 251.085,351.076 250.700 C 351.176 250.315,351.176 249.685,351.076 249.300 C 350.975 248.915,350.893 249.230,350.893 250.000 M350.229 253.429 C 350.081 254.015,350.038 254.572,350.132 254.666 C 350.227 254.760,350.424 254.358,350.571 253.771 C 350.719 253.185,350.762 252.628,350.668 252.534 C 350.573 252.440,350.376 252.842,350.229 253.429 M348.444 260.044 C 348.198 260.751,348.066 261.400,348.152 261.485 C 348.238 261.571,348.509 261.062,348.756 260.356 C 349.002 259.649,349.134 259.000,349.048 258.915 C 348.962 258.829,348.691 259.338,348.444 260.044 M320.095 260.623 C 319.603 261.374,319.200 262.123,319.200 262.287 C 319.200 262.451,319.666 261.900,320.236 261.062 C 320.805 260.224,321.208 259.475,321.131 259.398 C 321.054 259.320,320.588 259.872,320.095 260.623 M342.704 271.644 C 342.101 272.500,341.687 273.200,341.783 273.200 C 342.069 273.200,344.126 270.392,343.956 270.233 C 343.870 270.154,343.307 270.788,342.704 271.644 M295.800 273.603 C 295.285 273.826,295.713 273.867,297.000 273.718 C 298.100 273.591,299.075 273.423,299.167 273.344 C 299.514 273.045,296.564 273.272,295.800 273.603 M259.328 274.300 C 265.449 274.362,275.349 274.362,281.328 274.300 C 287.308 274.237,282.300 274.187,270.200 274.187 C 258.100 274.187,253.208 274.238,259.328 274.300 M335.978 279.500 L 334.600 281.000 336.100 279.622 C 337.496 278.338,337.784 278.000,337.478 278.000 C 337.412 278.000,336.737 278.675,335.978 279.500 M332.385 282.429 L 331.000 283.658 332.500 282.581 C 333.826 281.630,334.257 281.200,333.885 281.200 C 333.822 281.200,333.147 281.753,332.385 282.429 M327.000 286.000 C 326.340 286.437,325.980 286.792,326.200 286.788 C 326.601 286.782,328.776 285.223,328.400 285.212 C 328.290 285.208,327.660 285.563,327.000 286.000 M312.000 292.000 C 311.176 292.264,311.141 292.326,311.800 292.354 C 312.240 292.373,312.870 292.213,313.200 292.000 C 313.901 291.547,313.414 291.547,312.000 292.000 M308.800 292.800 C 307.976 293.064,307.941 293.126,308.600 293.154 C 309.040 293.173,309.670 293.013,310.000 292.800 C 310.701 292.347,310.214 292.347,308.800 292.800 M304.400 293.600 C 303.016 293.891,303.014 293.895,304.200 293.941 C 304.860 293.967,305.670 293.813,306.000 293.600 C 306.666 293.170,306.445 293.170,304.400 293.600 M297.800 294.400 L 295.400 294.666 297.600 294.685 C 298.810 294.696,300.340 294.568,301.000 294.400 C 302.538 294.009,301.337 294.009,297.800 294.400 M240.130 295.100 C 249.331 295.160,264.271 295.160,273.330 295.100 C 282.388 295.040,274.860 294.991,256.600 294.991 C 238.340 294.991,230.928 295.040,240.130 295.100 " stroke="none" fill="#c4c4c4" fill-rule="evenodd"></path><path id="path4" d="M121.800 106.299 L 194.400 106.402 194.400 116.199 L 194.400 125.995 164.500 126.100 L 134.600 126.205 164.707 126.303 L 194.814 126.400 194.707 116.300 L 194.600 106.200 121.900 106.198 L 49.200 106.197 121.800 106.299 M223.067 106.267 C 222.408 106.925,222.772 294.304,223.433 294.557 C 223.781 294.691,239.216 294.757,257.733 294.703 L 291.400 294.607 257.400 294.403 L 223.400 294.200 223.299 200.302 L 223.198 106.404 257.699 106.300 L 292.200 106.195 257.767 106.098 C 238.828 106.044,223.213 106.120,223.067 106.267 M297.400 106.800 C 298.060 106.968,299.140 107.106,299.800 107.107 C 300.809 107.108,300.745 107.055,299.400 106.777 C 297.374 106.358,295.737 106.377,297.400 106.800 M303.000 107.581 C 303.768 107.929,305.910 108.156,305.567 107.853 C 305.475 107.772,304.680 107.596,303.800 107.462 C 302.685 107.293,302.442 107.329,303.000 107.581 M307.200 108.382 C 307.530 108.605,308.145 108.791,308.567 108.794 C 309.590 108.802,309.271 108.573,307.800 108.244 C 306.924 108.048,306.762 108.085,307.200 108.382 M331.241 119.100 C 331.263 119.265,332.208 120.203,333.341 121.185 L 335.400 122.971 333.415 120.885 C 331.386 118.754,331.170 118.576,331.241 119.100 M336.277 124.422 C 336.915 125.203,337.849 126.508,338.351 127.322 C 338.854 128.135,339.351 128.800,339.455 128.800 C 339.861 128.800,338.124 126.224,336.658 124.653 C 335.523 123.437,335.423 123.376,336.277 124.422 M49.200 126.095 C 49.200 126.257,62.781 126.437,79.380 126.495 C 95.979 126.553,109.427 126.467,109.265 126.305 C 108.879 125.919,49.200 125.710,49.200 126.095 M247.784 126.500 C 247.679 126.775,247.640 140.410,247.697 156.800 L 247.800 186.600 268.930 186.704 C 280.552 186.761,290.589 186.671,291.235 186.504 C 291.880 186.337,282.417 186.252,270.204 186.316 L 248.000 186.432 248.000 156.420 L 248.000 126.408 266.500 126.300 L 285.000 126.192 266.487 126.096 C 251.975 126.021,247.934 126.108,247.784 126.500 M291.233 126.544 C 291.325 126.624,292.480 126.789,293.800 126.912 C 295.291 127.051,295.821 127.011,295.200 126.807 C 294.212 126.484,290.911 126.265,291.233 126.544 M134.099 210.494 L 134.000 294.388 121.900 294.500 L 109.800 294.612 121.913 294.706 C 131.305 294.779,134.068 294.688,134.215 294.300 C 134.320 294.025,134.359 256.180,134.302 210.200 L 134.198 126.600 134.099 210.494 M297.633 127.344 C 297.725 127.423,298.340 127.608,299.000 127.756 C 299.876 127.952,300.038 127.915,299.600 127.618 C 299.060 127.253,297.232 126.998,297.633 127.344 M311.000 132.262 C 313.611 134.819,316.396 137.160,314.800 135.456 C 313.810 134.400,312.460 133.160,311.800 132.703 C 311.140 132.245,310.780 132.047,311.000 132.262 M344.406 141.433 C 344.409 141.855,344.595 142.470,344.818 142.800 C 345.115 143.238,345.152 143.076,344.956 142.200 C 344.627 140.729,344.398 140.410,344.406 141.433 M345.275 145.400 C 345.265 146.060,345.411 146.960,345.600 147.400 L 345.944 148.200 345.925 147.400 C 345.914 146.960,345.768 146.060,345.600 145.400 L 345.295 144.200 345.275 145.400 M321.351 156.000 C 321.351 158.530,321.416 159.565,321.496 158.300 C 321.575 157.035,321.575 154.965,321.496 153.700 C 321.416 152.435,321.351 153.470,321.351 156.000 M346.148 156.000 C 346.148 158.310,346.214 159.255,346.295 158.100 C 346.376 156.945,346.376 155.055,346.295 153.900 C 346.214 152.745,346.148 153.690,346.148 156.000 M345.449 163.415 C 345.312 163.773,345.215 164.366,345.234 164.733 C 345.253 165.100,345.427 164.869,345.621 164.220 C 345.998 162.958,345.865 162.333,345.449 163.415 M340.553 176.500 C 339.176 178.836,339.086 179.035,339.787 178.200 C 340.600 177.232,341.300 176.000,341.038 176.000 C 340.933 176.000,340.715 176.225,340.553 176.500 M337.600 180.800 C 336.903 181.680,336.423 182.400,336.533 182.400 C 336.643 182.400,337.303 181.680,338.000 180.800 C 338.697 179.920,339.177 179.200,339.067 179.200 C 338.957 179.200,338.297 179.920,337.600 180.800 M305.200 182.400 C 304.430 182.822,303.944 183.174,304.120 183.183 C 304.544 183.205,306.800 182.032,306.800 181.790 C 306.800 181.528,306.777 181.537,305.200 182.400 M332.574 186.107 L 331.000 187.799 332.596 186.399 C 333.473 185.630,334.268 184.955,334.362 184.900 C 334.456 184.845,334.447 184.713,334.341 184.607 C 334.235 184.501,333.440 185.176,332.574 186.107 M324.400 192.036 C 323.736 192.579,323.669 192.715,324.200 192.440 C 325.505 191.766,326.228 191.212,325.800 191.215 C 325.580 191.217,324.950 191.586,324.400 192.036 M318.938 195.017 C 318.578 195.955,318.967 196.066,319.519 195.182 C 319.828 194.687,319.854 194.400,319.591 194.400 C 319.362 194.400,319.068 194.678,318.938 195.017 M325.200 198.200 C 325.750 198.514,326.380 198.772,326.600 198.772 C 326.820 198.772,326.550 198.514,326.000 198.200 C 325.450 197.886,324.820 197.628,324.600 197.628 C 324.380 197.628,324.650 197.886,325.200 198.200 M329.600 200.420 C 330.987 201.361,331.778 201.635,330.800 200.836 C 330.250 200.386,329.620 200.017,329.400 200.015 C 329.180 200.013,329.270 200.196,329.600 200.420 M335.200 204.125 C 335.200 204.194,335.785 204.779,336.500 205.425 L 337.800 206.600 336.625 205.300 C 335.530 204.088,335.200 203.816,335.200 204.125 M247.784 206.500 C 247.679 206.775,247.641 222.210,247.699 240.800 L 247.805 274.600 247.902 240.503 L 248.000 206.407 270.100 206.300 L 292.200 206.193 270.087 206.097 C 252.694 206.021,247.934 206.107,247.784 206.500 M298.705 207.083 C 299.202 207.179,299.922 207.175,300.305 207.075 C 300.687 206.975,300.280 206.896,299.400 206.901 C 298.520 206.905,298.207 206.987,298.705 207.083 M302.433 207.743 C 302.525 207.821,303.230 208.001,304.000 208.142 C 304.985 208.323,305.222 208.282,304.800 208.006 C 304.258 207.650,302.037 207.403,302.433 207.743 M318.000 215.793 C 318.990 216.888,319.845 217.863,319.900 217.959 C 319.955 218.055,320.086 218.047,320.191 217.943 C 320.296 217.838,319.441 216.863,318.291 215.776 L 316.200 213.800 318.000 215.793 M350.262 230.200 C 350.396 231.080,350.572 231.875,350.653 231.967 C 350.956 232.310,350.729 230.168,350.381 229.400 C 350.129 228.842,350.093 229.085,350.262 230.200 M325.568 230.700 C 325.759 232.081,325.787 232.109,325.919 231.051 C 325.998 230.419,325.905 229.745,325.712 229.552 C 325.510 229.350,325.449 229.840,325.568 230.700 M326.200 240.157 C 326.200 243.792,326.322 246.459,326.472 246.083 C 326.817 245.216,326.807 235.709,326.460 234.474 C 326.317 233.964,326.200 236.522,326.200 240.157 M350.893 234.800 C 350.893 235.570,350.975 235.885,351.076 235.500 C 351.176 235.115,351.176 234.485,351.076 234.100 C 350.975 233.715,350.893 234.030,350.893 234.800 M351.348 240.400 C 351.348 242.710,351.414 243.655,351.495 242.500 C 351.576 241.345,351.576 239.455,351.495 238.300 C 351.414 237.145,351.348 238.090,351.348 240.400 M350.901 246.600 C 350.905 247.480,350.987 247.793,351.083 247.295 C 351.179 246.798,351.175 246.078,351.075 245.695 C 350.975 245.313,350.896 245.720,350.901 246.600 M325.568 249.300 C 325.449 250.160,325.510 250.650,325.712 250.448 C 325.905 250.255,325.998 249.581,325.919 248.949 C 325.787 247.891,325.759 247.919,325.568 249.300 M350.449 250.600 C 350.416 251.040,350.296 251.850,350.183 252.400 L 349.977 253.400 350.406 252.419 C 350.642 251.879,350.761 251.069,350.672 250.619 C 350.513 249.821,350.507 249.821,350.449 250.600 M349.429 255.429 C 349.281 256.015,349.238 256.572,349.332 256.666 C 349.427 256.760,349.624 256.358,349.771 255.771 C 349.919 255.185,349.962 254.628,349.868 254.534 C 349.773 254.440,349.576 254.842,349.429 255.429 M316.981 264.900 L 315.400 266.600 317.100 265.019 C 318.681 263.548,318.984 263.200,318.681 263.200 C 318.616 263.200,317.851 263.965,316.981 264.900 M313.600 267.649 C 312.206 268.871,312.205 268.872,313.488 268.019 C 314.196 267.548,314.882 266.991,315.012 266.781 C 315.397 266.157,315.077 266.354,313.600 267.649 M295.800 274.000 C 294.711 274.277,294.693 274.307,295.600 274.325 C 296.150 274.335,296.960 274.189,297.400 274.000 C 298.386 273.576,297.466 273.576,295.800 274.000 M329.544 284.024 L 328.600 284.847 329.800 284.145 C 331.379 283.220,331.403 283.200,330.911 283.200 C 330.679 283.200,330.064 283.571,329.544 284.024 M326.200 286.000 C 325.540 286.437,325.180 286.792,325.400 286.788 C 325.801 286.782,327.976 285.223,327.600 285.212 C 327.490 285.208,326.860 285.563,326.200 286.000 M304.800 293.206 C 304.378 293.482,304.615 293.523,305.600 293.342 C 307.325 293.025,307.651 292.798,306.367 292.806 C 305.835 292.809,305.130 292.989,304.800 293.206 M298.200 294.015 C 297.444 294.218,297.962 294.254,299.600 294.115 C 301.030 293.993,302.275 293.828,302.367 293.747 C 302.670 293.480,299.422 293.689,298.200 294.015 " stroke="none" fill="#acacac" fill-rule="evenodd"></path></g></svg>